<?xml version="1.0" standalone="no"?>
<!DOCTYPE svg PUBLIC "-//W3C//DTD SVG 20010904//EN"
 "http://www.w3.org/TR/2001/REC-SVG-20010904/DTD/svg10.dtd">
<svg version="1.0" xmlns="http://www.w3.org/2000/svg"
 width="400.000000pt" height="400.000000pt" viewBox="0 0 400.000000 400.000000"
 preserveAspectRatio="xMidYMid meet">
<metadata>
Created by potrace 1.11, written by Peter Selinger 2001-2013
</metadata>
<g transform="translate(0.000000,400.000000) scale(0.100000,-0.100000)"
fill="#000000" stroke="none">
<path d="M0 2000 l0 -2000 360 0 c303 0 360 2 360 14 0 8 8 13 18 11 9 -2 19
-4 22 -4 3 -1 -2 -6 -10 -11 -10 -6 560 -10 1618 -10 l1632 0 0 2000 0 2000
-2000 0 -2000 0 0 -2000z m1791 897 c-6 -6 -14 -8 -18 -4 -4 4 -1 13 5 19 7 7
13 21 13 33 1 12 4 9 6 -9 3 -16 0 -33 -6 -39z m104 -177 c-3 -5 -14 -10 -23
-10 -15 0 -15 2 -2 10 20 13 33 13 25 0z m1050 -578 l100 -7 -2 -97 c-3 -107
-1 -110 52 -82 63 33 121 47 201 46 97 0 130 -13 201 -80 41 -38 55 -58 68
-106 25 -87 17 -213 -18 -283 -54 -107 -193 -242 -425 -417 -56 -43 -100 -81
-97 -85 2 -5 44 -12 92 -16 119 -9 351 -41 443 -60 148 -30 200 -63 200 -125
0 -23 -7 -43 -19 -54 -48 -44 -256 -87 -509 -106 -81 -6 -190 -15 -242 -19
-52 -5 -187 -10 -299 -10 -113 -1 -207 -4 -210 -5 -3 -2 -222 -7 -486 -10
-458 -7 -610 -15 -682 -37 -27 -9 -33 -16 -33 -39 0 -20 6 -31 20 -35 11 -3
24 -15 30 -25 5 -10 24 -21 42 -25 18 -4 64 -18 102 -32 59 -22 67 -28 53 -38
-19 -14 -22 -25 -7 -25 5 0 19 -10 32 -23 13 -12 37 -32 53 -44 43 -31 25 -41
-88 -49 -104 -7 -118 -17 -66 -46 17 -10 27 -23 24 -28 -10 -16 -114 -60 -142
-60 -13 0 -26 -7 -29 -15 -4 -10 -20 -15 -45 -15 -22 0 -48 -5 -59 -12 -15
-10 -29 -10 -62 -1 -24 7 -67 15 -95 19 -76 10 -77 31 -4 110 65 69 80 111 61
174 -14 50 -13 60 10 60 11 0 20 4 20 9 0 15 -42 41 -65 41 -58 0 -443 119
-677 210 -119 46 -168 84 -168 128 1 59 60 92 210 121 130 25 422 58 593 67
110 6 127 9 127 24 0 9 -17 57 -39 106 -60 139 -116 328 -140 479 -10 61 -45
445 -43 479 1 10 6 24 12 30 20 20 1738 26 2005 8z m-1985 -2042 c0 -5 -5 -10
-11 -10 -5 0 -7 5 -4 10 3 6 8 10 11 10 2 0 4 -4 4 -10z"/>
<path d="M3251 1890 c-53 -13 -82 -40 -138 -131 -28 -46 -65 -99 -82 -117 -17
-18 -31 -43 -31 -55 0 -36 -48 -223 -84 -330 -30 -86 -32 -99 -18 -104 8 -4
32 3 53 15 21 12 46 22 56 22 20 0 100 51 178 113 103 82 234 241 261 315 21
60 18 148 -8 194 -37 64 -111 96 -187 78z"/>
</g>
</svg>
