<?xml version="1.0" standalone="no"?>
<!DOCTYPE svg PUBLIC "-//W3C//DTD SVG 20010904//EN"
 "http://www.w3.org/TR/2001/REC-SVG-20010904/DTD/svg10.dtd">
<svg version="1.0" xmlns="http://www.w3.org/2000/svg"
 width="400.000000pt" height="400.000000pt" viewBox="0 0 400.000000 400.000000"
 preserveAspectRatio="xMidYMid meet">
<metadata>
Created by potrace 1.11, written by Peter Selinger 2001-2013
</metadata>
<g transform="translate(0.000000,400.000000) scale(0.100000,-0.100000)"
fill="#000000" stroke="none">
<path d="M0 2000 l0 -2000 2000 0 2000 0 0 2000 0 2000 -2000 0 -2000 0 0
-2000z m3024 134 c14 -5 16 -22 14 -105 -1 -54 1 -101 5 -105 4 -5 42 10 85
31 81 41 162 55 236 41 45 -9 152 -89 173 -130 22 -42 43 -124 42 -161 l-1
-30 -9 35 c-5 19 -10 45 -11 58 0 12 -4 25 -9 28 -5 3 -9 13 -9 24 0 24 -61
76 -99 85 -17 4 -29 11 -25 16 5 9 -36 29 -62 29 -21 0 -7 -19 22 -30 13 -5
24 -16 24 -25 0 -8 5 -15 10 -15 6 0 10 -5 10 -12 0 -7 -6 -6 -17 4 -35 30
-103 40 -162 24 -30 -8 -62 -12 -70 -9 -14 4 -14 3 -1 -6 12 -8 12 -13 -6 -33
-24 -27 -84 -116 -84 -125 0 -14 -52 -73 -64 -73 -9 0 -19 -31 -30 -91 -9 -50
-37 -156 -61 -235 -61 -196 -60 -205 19 -178 43 15 48 15 65 0 22 -20 50 -20
75 -1 11 8 28 15 37 15 10 0 19 4 21 9 4 14 141 111 147 106 6 -7 -62 -64
-166 -140 -125 -90 -137 -100 -130 -112 3 -5 51 -13 105 -16 251 -17 522 -67
590 -109 l34 -21 -31 -19 c-17 -11 -31 -24 -31 -29 0 -12 57 -11 65 1 10 16
25 11 25 -8 0 -43 -60 -68 -228 -97 -279 -48 -836 -71 -2207 -91 -606 -9 -552
-13 -803 47 -196 47 -282 94 -282 156 0 61 170 109 520 147 74 8 187 18 250
21 138 7 160 11 160 28 0 8 -18 54 -39 104 -98 225 -152 461 -171 751 -5 81
-12 166 -15 189 -4 28 -2 44 7 50 7 4 166 11 353 14 396 7 1706 2 1729 -7z
m443 -336 c-3 -8 -6 -5 -6 6 -1 11 2 17 5 13 3 -3 4 -12 1 -19z m27 -60 c10
-40 6 -105 -9 -139 -22 -52 -49 -86 -62 -82 -7 3 -13 -1 -13 -8 0 -7 -3 -10
-6 -7 -3 4 6 25 20 47 30 47 58 155 50 189 -4 12 -2 22 4 22 5 0 12 -10 16
-22z m45 -197 c-12 -28 -24 -49 -27 -46 -3 3 5 28 18 55 30 65 37 58 9 -9z
m-59 -95 c0 -2 -7 -7 -16 -10 -8 -3 -12 -2 -9 4 6 10 25 14 25 6z m-2253
-1007 c8 -8 17 -8 32 0 16 9 28 8 51 -4 16 -9 30 -22 30 -29 0 -14 122 -106
140 -106 6 0 10 -4 10 -9 0 -10 -82 -21 -157 -21 -40 0 -53 -4 -53 -15 0 -8 5
-15 12 -15 14 0 48 -30 48 -42 0 -11 -46 -29 -90 -35 -19 -2 -54 -7 -78 -10
-25 -3 -48 -1 -56 6 -21 17 -25 71 -9 116 9 25 12 56 8 83 -4 27 -2 42 5 42 6
0 16 11 22 25 8 19 19 25 43 25 17 0 36 -5 42 -11z"/>
<path d="M1845 2114 c-11 -2 -46 -6 -78 -9 l-58 -7 6 -46 c8 -64 26 -132 35
-132 3 0 13 -43 20 -96 10 -73 18 -98 32 -105 10 -5 18 -16 18 -24 0 -8 3 -15
8 -15 4 0 18 -16 31 -35 21 -32 51 -47 51 -27 0 4 21 5 48 2 64 -8 143 12 247
61 77 36 115 77 115 124 0 19 5 35 10 35 6 0 10 -5 10 -11 0 -6 8 -3 17 6 13
14 17 39 17 134 1 93 4 117 16 123 15 7 9 8 -62 12 -14 0 -30 4 -34 9 -7 6
-405 8 -449 1z"/>
<path d="M3166 1952 c-9 -8 -7 -32 2 -32 5 0 16 6 27 13 17 13 17 14 -3 19
-11 3 -23 3 -26 0z"/>
<path d="M3288 1933 c7 -3 16 -2 19 1 4 3 -2 6 -13 5 -11 0 -14 -3 -6 -6z"/>
<path d="M3067 1843 c-4 -3 -7 -11 -7 -17 0 -6 5 -5 12 2 6 6 9 14 7 17 -3 3
-9 2 -12 -2z"/>
<path d="M3056 1793 c-6 -14 -5 -15 5 -6 7 7 10 15 7 18 -3 3 -9 -2 -12 -12z"/>
<path d="M1160 292 c0 -14 23 -32 42 -32 11 0 18 7 18 20 0 16 -7 20 -30 20
-16 0 -30 -4 -30 -8z"/>
</g>
</svg>
